<svg xmlns="http://www.w3.org/2000/svg" width="32" height="32" viewBox="0 0 32 32" fill="none">
  <path d="M6.67188 12.0003C6.67188 9.52497 7.65521 7.151 9.40554 5.40066C11.1559 3.65032 13.5299 2.66699 16.0052 2.66699C18.4806 2.66699 20.8545 3.65032 22.6049 5.40066C24.3552 7.151 25.3385 9.52497 25.3385 12.0003V20.0003C25.3385 21.226 25.0971 22.4397 24.6281 23.572C24.159 24.7044 23.4716 25.7333 22.6049 26.6C21.7382 27.4667 20.7093 28.1542 19.5769 28.6232C18.4445 29.0922 17.2309 29.3337 16.0052 29.3337C14.7795 29.3337 13.5659 29.0922 12.4335 28.6232C11.3011 28.1542 10.2722 27.4667 9.40554 26.6C8.53886 25.7333 7.85138 24.7044 7.38233 23.572C6.91329 22.4397 6.67187 21.226 6.67188 20.0003V12.0003Z" stroke="#646cff" stroke-width="2"/>
  <path d="M14.0078 11.3335C14.0078 10.8031 14.2185 10.2944 14.5936 9.91928C14.9687 9.54421 15.4774 9.3335 16.0078 9.3335C16.5382 9.3335 17.047 9.54421 17.422 9.91928C17.7971 10.2944 18.0078 10.8031 18.0078 11.3335V14.0002C18.0078 14.5306 17.7971 15.0393 17.422 15.4144C17.047 15.7894 16.5382 16.0002 16.0078 16.0002C15.4774 16.0002 14.9687 15.7894 14.5936 15.4144C14.2185 15.0393 14.0078 14.5306 14.0078 14.0002V11.3335Z" stroke="#646cff" stroke-width="2"/>
  <path d="M16.0078 2.66699V9.33366" stroke="black" stroke-width="2" stroke-linecap="round"/>
</svg>